# xmcd CD database file
#
# Track frame offsets:
#	150
#	14530
#	30420
#	45372
#	62107
#	74317
#	87892
#	101845
#	119172
#	135290
#	152432
#	166102
#
# Disc length: 2359 seconds
#
# Revision: 0
# Processed by: cddbd v1.5.1PL0 Copyright (c) Steve Scherf et al.
# Submitted via: CDex 1.51
#
DISCID=9209350c
DTITLE=Tracy Haung - Goes Country
DYEAR=1981
DGENRE=Country
TTITLE0=Fear Of Flying
TTITLE1=Making Believe
TTITLE2=You Never Can Tell
TTITLE3=Mexican Divorce
TTITLE4=Stand By Your Man
TTITLE5=Substitute
TTITLE6=Honey Come Back
TTITLE7=Someone To Lay Down Beside Me
TTITLE8=A Little Bit More
TTITLE9=Angel Of The Morning
TTITLE10=What Will I Write
TTITLE11=She'll Have To Go
EXTD=YEAR: 1981
EXTT0=
EXTT1=
EXTT2=
EXTT3=
EXTT4=
EXTT5=
EXTT6=
EXTT7=
EXTT8=
EXTT9=
EXTT10=
EXTT11=
PLAYORDER=
